<svg xmlns="http://www.w3.org/2000/svg" viewBox="0 0 512 512" style="background:#fff"><path d="M263.601.001H0V512h512V.001H263.601Zm-15.208 496.791H15.208V263.606h233.186v233.186h-.001Zm0-248.398H15.208V15.208h233.186v233.186h-.001Zm248.399 0v248.398H263.607V263.606h233.786v-15.212H263.607V15.208h233.186v233.186h-.001Z"/><path d="M160.712 102.892V58.906h-57.82v43.986H58.905v57.82h43.986v43.986h57.82v-43.986h43.986v-57.82h-43.985ZM421.084 131.802l31.103-31.103-40.884-40.884L380.2 90.918l-31.103-31.103-40.885 40.884 31.103 31.103-31.103 31.103 40.885 40.885 31.103-31.103 31.103 31.103 40.884-40.885-31.103-31.103ZM204.697 313.747H58.905v57.82h145.793l-.001-57.82ZM307.304 351.288v57.82h145.792v-57.82H307.304ZM204.697 388.83H58.905v57.82h145.793l-.001-57.82Z"/></svg>
